<?xml version="1.0" encoding="UTF-8"?>
<svg width="359px" height="100px" viewBox="0 0 359 100" version="1.1" xmlns="http://www.w3.org/2000/svg" xmlns:xlink="http://www.w3.org/1999/xlink">
    <title>Group 11</title>
    <defs>
        <filter id="filter-1">
            <feColorMatrix in="SourceGraphic" type="matrix" values="0 0 0 0 0.973166 0 0 0 0 0.973166 0 0 0 0 0.973166 0 0 0 1.000000 0"></feColorMatrix>
        </filter>
        <polygon id="path-2" points="0 100 358.653 100 358.653 0 0 0"></polygon>
    </defs>
    <g id="Brand-Foundation" stroke="none" stroke-width="1" fill="none" fill-rule="evenodd">
        <g id="Group-11" transform="translate(-1928.000000, -8653.000000)" filter="url(#filter-1)">
            <g transform="translate(1928.000000, 8653.000000)">
                <path d="M201.6758,54.7339 C201.8558,51.5459 202.5438,48.5169 203.9628,45.7389 C205.5858,42.5469 207.8958,39.9569 210.8998,37.9659 C213.9048,35.9759 217.4288,34.9869 221.4838,34.9869 C225.2058,34.9869 228.4648,35.8419 231.2478,37.5549 C234.0218,39.2789 236.1868,41.6139 237.7218,44.5709 C239.2688,47.5289 240.0418,50.9209 240.0418,54.7339 L201.6758,54.7339 Z M254.1598,60.4609 C254.1598,53.6999 253.2648,47.9519 251.4648,43.2139 C249.6638,38.4779 247.2118,34.6199 244.0848,31.6399 C240.9698,28.6599 237.4558,26.4799 233.5358,25.0899 C229.6128,23.7009 225.5588,22.9999 221.3838,22.9999 C214.5128,22.9999 208.5028,24.6339 203.3768,27.9039 C198.2508,31.1719 194.2758,35.7099 191.4248,41.5359 C188.5858,47.3619 187.1598,54.0889 187.1598,61.7169 C187.1598,69.4559 188.5858,76.1829 191.4248,81.9309 C194.2758,87.6689 198.3188,92.1169 203.5758,95.2749 C208.8228,98.4219 215.0978,99.9999 222.3998,99.9999 C227.8018,99.9999 232.6078,99.1669 236.8388,97.5089 C241.0588,95.8409 244.5818,93.4959 247.3888,90.4709 C250.2048,87.4469 252.1608,83.9109 253.2538,79.8639 L239.6108,77.3949 C238.7388,79.7189 237.4898,81.6759 235.8438,83.2659 C234.2088,84.8449 232.2648,86.0349 230.0108,86.8359 C227.7688,87.6249 225.2718,88.0139 222.5428,88.0139 C218.3348,88.0139 214.6558,87.1019 211.5068,85.2789 C208.3488,83.4549 205.9068,80.7869 204.1498,77.2959 C202.5328,74.0589 201.7378,70.1139 201.6178,65.5969 L254.1598,65.5969 L254.1598,60.4609 Z" id="Fill-1" fill="#231F20"></path>
                <mask id="mask-3" fill="white">
                    <use xlink:href="#path-2"></use>
                </mask>
                <g id="Clip-4"></g>
                <polygon id="Fill-3" fill="#231F20" mask="url(#mask-3)" points="268.32 100 281.32 100 281.32 0 268.32 0"></polygon>
                <path d="M358.6523,22.9995 L358.6523,36.7595 C347.5413,36.3155 335.5373,42.0565 335.5373,59.9045 L335.5373,99.9995 L322.6523,99.9995 L322.6523,23.0005 L335.5373,23.0005 L335.5373,37.0665 C340.2783,26.4745 349.3153,22.9995 358.6523,22.9995" id="Fill-5" fill="#231F20" mask="url(#mask-3)"></path>
                <polygon id="Fill-6" fill="#231F20" mask="url(#mask-3)" points="295.493 100 308.493 100 308.493 23 295.493 23"></polygon>
                <path d="M293.4932,8.6099 C293.4932,3.9359 297.2782,-0.0001 302.0692,-0.0001 C306.7192,-0.0001 310.4932,3.9359 310.4932,8.6099 C310.4932,13.2839 306.7192,17.0889 302.0692,17.0889 C297.2782,17.0889 293.4932,13.2839 293.4932,8.6099" id="Fill-7" fill="#231F20" mask="url(#mask-3)"></path>
                <polygon id="Fill-8" fill="#231F20" mask="url(#mask-3)" points="173.1211 22.9995 146.4131 71.3345 120.0511 22.9995 106.0001 22.9995 146.5801 99.9995 187.1601 22.9995"></polygon>
                <g id="Group-25" mask="url(#mask-3)">
                    <g transform="translate(0.000000, -0.000500)" id="Group-24">
                        <g transform="translate(53.000000, 50.000000) scale(-1, 1) translate(-53.000000, -50.000000) ">
                            <polygon id="Fill-9" fill="#231F20" points="-5.68434189e-14 2.34479103e-13 22.451 42.663 46.024 2.34479103e-13"></polygon>
                            <polygon id="Fill-10" fill="#231F20" points="106 0 60.063 0 30.086 56.882 53 100"></polygon>
                        </g>
                    </g>
                </g>
            </g>
        </g>
    </g>
</svg>