<?xml version="1.0" encoding="UTF-8"?><!DOCTYPE svg PUBLIC "-//W3C//DTD SVG 1.1//EN" "http://www.w3.org/Graphics/SVG/1.1/DTD/svg11.dtd"><svg xmlns="http://www.w3.org/2000/svg" xmlns:xlink="http://www.w3.org/1999/xlink"><defs/><symbol id="arrow-down" viewBox="0 0 54 54">
<path d="M23.3333 -0.000240048L23.3333 40.5664L4.69999 21.9331L3.17996e-07 26.6664L26.6666 53.333L53.3332 26.6664L48.6333 21.9664L30 40.5664L30 -0.000239968L23.3333 -0.000240048Z" fill="currentColor"/>
</symbol><symbol id="arrow-left" viewBox="0 0 24 24">
<path d="M23.2323 10.5883L6.05297 10.5883L13.9439 2.69741L11.9394 0.707031L0.646484 12L11.9394 23.2929L13.9298 21.3025L6.05297 13.4116L23.2323 13.4116V10.5883Z" fill="currentColor"/>
</symbol><symbol id="arrow-right" viewBox="0 0 24 24">
<path d="M11.8169 0.707397L9.82648 2.69778L17.7033 10.5887L0.523926 10.5887L0.523926 13.4119L17.7033 13.4119L9.82648 21.3029L11.8169 23.2933L23.1098 12.0003L11.8169 0.707397Z" fill="currentColor"/>
</symbol><symbol id="arrow-up" viewBox="0 0 54 54">
<path d="M29.9997 53.3332L29.9997 12.7666L48.633 31.3999L53.333 26.6666L26.6664 -1.16564e-06L-0.000241492 26.6666L4.69975 31.3666L23.3331 12.7666L23.3331 53.3332L29.9997 53.3332Z" fill="currentColor"/>
</symbol><symbol id="avitar" viewBox="0 0 54 54">
<path d="M26.8502 27.0006C34.2169 27.0006 40.1835 21.034 40.1835 13.6673C40.1835 6.30064 34.2169 0.333984 26.8502 0.333984C19.4836 0.333984 13.5169 6.30064 13.5169 13.6673C13.5169 21.034 19.4836 27.0006 26.8502 27.0006ZM26.8502 33.6673C17.9502 33.6673 0.183594 38.1339 0.183594 47.0006L0.183594 50.3339C0.183594 52.1672 1.68359 53.6672 3.51692 53.6672H50.1835C52.0168 53.6672 53.5168 52.1672 53.5168 50.3339V47.0006C53.5168 38.1339 35.7502 33.6673 26.8502 33.6673Z" fill="currentColor"/>
</symbol><symbol id="brand-instagram" viewBox="0 0 30 30">
<path d="M26.5263 12.7311H23.9368C24.1474 13.4874 24.2526 14.2437 24.2526 15C24.2526 16.2605 24.0105 17.458 23.5263 18.5924C23.0421 19.7269 22.3789 20.7143 21.5368 21.5546C20.6947 22.395 19.7053 23.0567 18.5684 23.5399C17.4316 24.0231 16.2316 24.2647 14.9684 24.2647C13.7053 24.2647 12.5158 24.0231 11.4 23.5399C10.2842 23.0567 9.30526 22.395 8.46316 21.5546C7.62105 20.7143 6.95789 19.7269 6.47368 18.5924C5.98947 17.458 5.74737 16.2605 5.74737 15C5.74737 14.2437 5.85263 13.4874 6.06316 12.7311H3.41053V25.3992C3.41053 25.7353 3.52632 26.0084 3.75789 26.2185C3.98947 26.4286 4.27368 26.5336 4.61053 26.5336H25.3895C25.7263 26.5336 26 26.4286 26.2105 26.2185C26.4211 26.0084 26.5263 25.7353 26.5263 25.3992V12.7311ZM26.5263 4.66387C26.5263 4.32773 26.4211 4.04412 26.2105 3.81303C26 3.58193 25.7263 3.46639 25.3895 3.46639H21.9158C21.5789 3.46639 21.3053 3.58193 21.0947 3.81303C20.8842 4.04412 20.7789 4.32773 20.7789 4.66387V8.06723C20.7789 8.40336 20.8842 8.68698 21.0947 8.91807C21.3053 9.14916 21.5789 9.26471 21.9158 9.26471H25.3895C25.7263 9.26471 26 9.14916 26.2105 8.91807C26.4211 8.68698 26.5263 8.40336 26.5263 8.06723V4.66387ZM14.9684 9.26471C13.3684 9.26471 12.0105 9.82143 10.8947 10.9349C9.77895 12.0483 9.22105 13.4034 9.22105 15C9.22105 15.7983 9.36842 16.5546 9.66316 17.2689C9.95789 17.9832 10.3684 18.6029 10.8947 19.1282C11.4211 19.6534 12.0316 20.063 12.7263 20.3571C13.4211 20.6513 14.1684 20.7983 14.9684 20.7983C15.7684 20.7983 16.5263 20.6513 17.2421 20.3571C17.9579 20.063 18.5789 19.6534 19.1053 19.1282C19.6316 18.6029 20.0421 17.9832 20.3368 17.2689C20.6316 16.5546 20.7789 15.7983 20.7789 15C20.7789 14.2017 20.6316 13.4559 20.3368 12.7626C20.0421 12.0693 19.6316 11.4601 19.1053 10.9349C18.5789 10.4097 17.9579 10 17.2421 9.70588C16.5263 9.41177 15.7684 9.26471 14.9684 9.26471ZM3.41053 30C2.44211 30 1.63158 29.6639 0.978947 28.9916C0.326316 28.3193 0 27.5 0 26.5336V3.46639C0 2.5 0.326316 1.68067 0.978947 1.0084C1.63158 0.336134 2.44211 0 3.41053 0H26.5263C27.4947 0 28.3158 0.336134 28.9895 1.0084C29.6632 1.68067 30 2.5 30 3.46639V26.5336C30 27.5 29.6632 28.3193 28.9895 28.9916C28.3158 29.6639 27.4947 30 26.5263 30H3.41053Z" fill="currentColor"/>
</symbol><symbol id="brand-linkedin" viewBox="0 0 38 39">
<path d="M32.5688 3.24951L5.4189 3.24951C4.17485 3.24951 3.16406 4.30141 3.16406 5.5927L3.16406 33.4063C3.16406 34.6976 4.17485 35.7495 5.4189 35.7495H32.5688C33.8129 35.7495 34.8307 34.6976 34.8307 33.4063V5.5927C34.8307 4.30141 33.8129 3.24951 32.5688 3.24951ZM12.7347 31.1067H8.04129L8.04129 15.5966H12.7418L12.7418 31.1067H12.7347ZM10.388 13.4783C8.88244 13.4783 7.66667 12.2233 7.66667 10.6853C7.66667 9.14739 8.88244 7.89237 10.388 7.89237C11.8865 7.89237 13.1094 9.14739 13.1094 10.6853C13.1094 12.2305 11.8936 13.4783 10.388 13.4783ZM30.3281 31.1067H25.6347V23.562C25.6347 21.7629 25.5993 19.4487 23.1961 19.4487C20.7504 19.4487 20.3757 21.4074 20.3757 23.4314V31.1067H15.6823L15.6823 15.5966L20.1849 15.5966V17.7149H20.2485C20.8776 16.4962 22.4115 15.2121 24.6946 15.2121C29.4446 15.2121 30.3281 18.4258 30.3281 22.6044V31.1067Z" fill="currentColor"/>
</symbol><symbol id="brand-mos" viewBox="0 0 48 49">
    <path d="M33.159 24.0776C33.159 28.7253 29.3882 32.4868 24.729 32.4868C22.939 32.4868 21.2806 31.9222 19.9184 30.9769C15.1275 35.3161 11.5344 40.9748 12.2714 48.9376H48.1107V16.4233C47.8212 16.4562 41.0166 17.3489 32.9155 22.1345C33.0669 22.7581 33.159 23.4146 33.159 24.0842" fill="currentColor"/>
    <path d="M0 0.9375V48.9375H3.95509C4.03406 48.1891 5.2252 38.9791 17.6827 28.6596C16.8141 27.3467 16.3139 25.7712 16.3139 24.0775C16.3139 19.4364 20.0848 15.6749 24.7374 15.6749C27.5474 15.6749 30.0284 17.0535 31.5618 19.1673C35.5498 16.9287 41.1566 14.2242 48.1192 11.9397V0.9375H0Z" fill="currentColor"/>
</symbol><symbol id="brand-tiktok" viewBox="0 0 30 34">
<path d="M15.4255 0.0285203C17.2688 0 19.1015 0.0169009 20.932 0C21.043 2.15592 21.8183 4.35198 23.3964 5.87623C24.9714 7.43851 27.1991 8.15363 29.3667 8.39552V14.0668C27.3354 14.0003 25.2946 13.5778 23.4513 12.7031C22.6485 12.3398 21.9007 11.8718 21.1687 11.3933C21.1591 15.5087 21.1856 19.6188 21.1423 23.7172C21.0324 25.6862 20.3828 27.6457 19.2377 29.2681C17.3955 31.9691 14.1981 33.73 10.914 33.7849C8.89966 33.9 6.88739 33.3508 5.17089 32.3388C2.32626 30.6614 0.32456 27.5907 0.0330192 24.295C-0.000782602 23.5905 -0.012402 22.887 0.0161183 22.1993C0.269632 19.5195 1.5953 16.9558 3.65298 15.2119C5.98531 13.1806 9.25246 12.213 12.3115 12.7855C12.34 14.8717 12.2566 16.9558 12.2566 19.042C10.8591 18.5899 9.22605 18.7167 8.00496 19.5649C7.11344 20.1427 6.43635 21.0279 6.08354 22.0293C5.792 22.7433 5.87545 23.5366 5.89235 24.295C6.2272 26.6062 8.44967 28.5488 10.8221 28.3386C12.395 28.3217 13.9023 27.409 14.722 26.0728C14.9871 25.6049 15.284 25.1264 15.2998 24.576C15.4382 22.0567 15.3833 19.548 15.4002 17.0287C15.4118 11.3511 15.3833 5.68927 15.4266 0.0295766L15.4255 0.0285203Z" fill="currentColor"/>
</symbol><symbol id="brand-twitter" viewBox="0 0 38 32">
<path d="M33.9476 8.5548C33.9715 8.88918 33.9715 9.22363 33.9715 9.55801C33.9715 19.757 26.2088 31.5086 12.0209 31.5086C7.64991 31.5086 3.58944 30.2426 0.173828 28.0453C0.794868 28.1169 1.39194 28.1408 2.03687 28.1408C5.64349 28.1408 8.9636 26.9226 11.6149 24.8446C8.22316 24.7729 5.3808 22.5516 4.40149 19.4943C4.87923 19.5659 5.35691 19.6137 5.85855 19.6137C6.5512 19.6137 7.24392 19.5181 7.88878 19.351C4.35377 18.6344 1.70242 15.5293 1.70242 11.7793V11.6838C2.72945 12.2571 3.92382 12.6153 5.18964 12.6631C3.11162 11.2777 1.75021 8.91307 1.75021 6.2379C1.75021 4.80481 2.13231 3.49112 2.80114 2.34462C6.59891 7.02613 12.3075 10.0834 18.7087 10.4178C18.5893 9.8446 18.5176 9.24752 18.5176 8.65038C18.5176 4.39875 21.9571 0.935425 26.2326 0.935425C28.4539 0.935425 30.4602 1.86695 31.8695 3.37172C33.6131 3.03734 35.2851 2.39241 36.766 1.50868C36.1927 3.30011 34.9746 4.80489 33.3743 5.76023C34.9268 5.59311 36.4316 5.16308 37.8169 4.56601C36.7662 6.09461 35.4524 7.45601 33.9476 8.5548Z" fill="currentColor"/>
</symbol><symbol id="brand-x" viewBox="0 0 1200 1227">
<path d="M714.163 519.284L1160.89 0H1055.03L667.137 450.887L357.328 0H0L468.492 681.821L0 1226.37H105.866L515.491 750.218L842.672 1226.37H1200L714.137 519.284H714.163ZM569.165 687.828L521.697 619.934L144.011 79.6944H306.615L611.412 515.685L658.88 583.579L1055.08 1150.3H892.476L569.165 687.854V687.828Z" fill="currentColor"/>
</symbol><symbol id="brand-youtube" viewBox="0 0 39 27">
<path d="M37.5504 4.13362C37.0948 2.51639 35.8336 1.24803 34.2092 0.799661C31.2181 3.8229e-05 19.1938 3.84224e-05 19.1938 3.84224e-05C19.1938 3.84224e-05 7.19225 -0.0191432 4.16999 0.799661C2.55396 1.24922 1.28679 2.51639 0.83603 4.13362C0.268981 7.19904 -0.0127448 10.3016 0.00044236 13.4186C-0.00555182 16.5152 0.274976 19.613 0.83603 22.6592C1.28679 24.2765 2.55396 25.5448 4.16999 26.0004C7.16108 26.8 19.1938 26.8 19.1938 26.8C19.1938 26.8 31.1881 26.8 34.2092 26.0004C35.8336 25.5448 37.0948 24.2777 37.5504 22.6592C38.1006 19.613 38.3692 16.5152 38.35 13.4186C38.3692 10.3016 38.1066 7.19904 37.5504 4.13362ZM15.3527 19.1574V7.6546L25.3618 13.4186L15.3527 19.1574Z" fill="currentColor"/>
</symbol><symbol id="calendar" viewBox="0 0 68 74">
<path d="M60.4755 6.99918H57.1422V0.33252L50.4755 0.33252V6.99918L17.1422 6.99918V0.33252L10.4756 0.33252V6.99918L7.14224 6.99918C3.47558 6.99918 0.475586 9.99917 0.475586 13.6658L0.475586 66.9991C0.475586 70.6657 3.47558 73.6657 7.14224 73.6657H60.4755C64.1421 73.6657 67.1421 70.6657 67.1421 66.9991V13.6658C67.1421 9.99917 64.1421 6.99918 60.4755 6.99918ZM60.4755 66.9991H7.14224L7.14224 23.6658L60.4755 23.6658L60.4755 66.9991Z" fill="currentColor"/>
</symbol><symbol id="check" viewBox="0 0 16 10">
<path d="M13.5309 0.37583L13.5296 0.377007L5.88778 7.11367L2.47078 4.10138C2.47071 4.10132 2.47064 4.10125 2.47056 4.10119C2.37155 4.01329 2.23682 3.96384 2.09629 3.96384C1.95572 3.96384 1.82098 4.0133 1.72196 4.10124C1.72191 4.10129 1.72186 4.10133 1.7218 4.10138L1.15601 4.60015C1.15595 4.60021 1.15587 4.60028 1.1558 4.60034C1.05608 4.68763 1 4.80639 1 4.93028C1 5.05419 1.05611 5.17298 1.15587 5.26027C1.15592 5.26032 1.15596 5.26036 1.15601 5.2604L5.51733 9.10514C5.51741 9.10523 5.5175 9.10523 5.51758 9.10532C5.61659 9.19322 5.75131 9.24268 5.89183 9.24268C6.03235 9.24268 6.16705 9.19322 6.26606 9.10532C6.26614 9.10523 6.26623 9.10523 6.26631 9.10514L14.844 1.54348C14.844 1.54345 14.8441 1.54342 14.8441 1.54341C14.9439 1.4561 15 1.3373 15 1.21335C15 1.08957 14.944 0.970907 14.8445 0.883641C14.8443 0.883502 14.8442 0.883364 14.844 0.883217L14.2785 0.377545V0.377527L14.2765 0.37583C14.0687 0.198291 13.7386 0.198291 13.5309 0.37583Z" fill="currentColor" stroke="currentColor" stroke-width="0.25"/>
</symbol><symbol id="chevron-down" viewBox="0 0 14 8">
<path fill-rule="evenodd" clip-rule="evenodd" d="M7.39819 7.20296C7.17851 7.42263 6.82241 7.42263 6.60274 7.20296L0.867876 1.46808C0.648208 1.24841 0.648208 0.892307 0.867876 0.672632L1.13305 0.407432C1.35271 0.187757 1.70887 0.187757 1.92854 0.407432L7.00046 5.47938L12.0724 0.407432C12.2921 0.187757 12.6482 0.187757 12.8679 0.407432L13.1331 0.672632C13.3527 0.892307 13.3527 1.24841 13.1331 1.46808L7.39819 7.20296Z" fill="currentColor"/>
</symbol><symbol id="chevron-left" viewBox="0 0 25 40">
<path d="M24.7302 4.69902L20.0302 -0.000976563L0.0302734 19.999L20.0302 39.999L24.7302 35.299L9.46359 19.999L24.7302 4.69902Z" fill="currentColor"/>
</symbol><symbol id="chevron-right" viewBox="0 0 26 40">
<path d="M5.37675 -0.000976563L0.676758 4.69902L15.9434 19.999L0.676758 35.299L5.37675 39.999L25.3767 19.999L5.37675 -0.000976563Z" fill="currentColor"/>
</symbol><symbol id="chevron-up" viewBox="0 0 41 26">
<path d="M20.7285 0.668457L0.728516 20.6684L5.42851 25.3684L20.7285 10.1018L36.0285 25.3684L40.7285 20.6684L20.7285 0.668457Z" fill="currentColor"/>
</symbol><symbol id="close" viewBox="0 0 48 48">
<path d="M47.1012 5.3665L42.4012 0.666504L23.7679 19.2998L5.13456 0.666504L0.43457 5.3665L19.0679 23.9998L0.43457 42.6331L5.13456 47.3331L23.7679 28.6998L42.4012 47.3331L47.1012 42.6331L28.4679 23.9998L47.1012 5.3665Z" fill="currentColor"/>
</symbol><symbol id="dollar-sign" viewBox="0 0 35 60">
<path d="M17.5039 47.0019C10.6373 47.0019 7.93729 43.9352 7.57063 40.0019H0.237305C0.637304 47.3019 6.10396 51.4019 12.504 52.7685V60.0019H22.5039V52.8352C29.0039 51.6019 34.1706 47.8352 34.1706 41.0019C34.1706 31.5352 26.0706 28.3019 18.5039 26.3352C10.9373 24.3686 8.50396 22.3352 8.50396 19.1686C8.50396 15.5353 11.8706 13.0019 17.5039 13.0019C23.4373 13.0019 25.6373 15.8353 25.8373 20.0019L33.2039 20.0019C32.9706 14.2686 29.4706 9.00194 22.5039 7.30194V0.00195312L12.504 0.00195312V7.20194C6.03729 8.60194 0.837303 12.8019 0.837303 19.2353C0.837303 26.9352 7.20396 30.7686 16.5039 33.0019C24.8373 35.0019 26.5039 37.9352 26.5039 41.0352C26.5039 43.3352 24.8706 47.0019 17.5039 47.0019V47.0019Z" fill="currentColor"/>
</symbol><symbol id="map-marker" viewBox="0 0 47 68">
<path d="M23.4925 0.664551C10.5925 0.664551 0.15918 11.0979 0.15918 23.9978C0.15918 29.7978 1.82584 35.2312 4.85917 40.1311C8.02583 45.2645 12.1925 49.6645 15.3925 54.7978C16.9591 57.2978 18.0925 59.6311 19.2925 62.3311C20.1591 64.1644 20.8591 67.3311 23.4925 67.3311C26.1258 67.3311 26.8258 64.1644 27.6591 62.3311C28.8925 59.6311 29.9925 57.2978 31.5591 54.7978C34.7591 49.6978 38.9258 45.2978 42.0924 40.1311C45.1591 35.2312 46.8258 29.7978 46.8258 23.9978C46.8258 11.0979 36.3924 0.664551 23.4925 0.664551ZM23.4925 33.1645C18.8925 33.1645 15.1592 29.4312 15.1592 24.8312C15.1592 20.2312 18.8925 16.4979 23.4925 16.4979C28.0925 16.4979 31.8258 20.2312 31.8258 24.8312C31.8258 29.4312 28.0925 33.1645 23.4925 33.1645Z" fill="currentColor"/>
</symbol><symbol id="menu" viewBox="0 0 61 40">
<path d="M0.0888672 39.999H60.0888V33.3323H0.0888672L0.0888672 39.999ZM0.0888672 23.3323L60.0888 23.3323V16.6657L0.0888672 16.6657L0.0888672 23.3323ZM0.0888672 -0.000976562L0.0888672 6.66568L60.0888 6.66568V-0.000976563L0.0888672 -0.000976562Z" fill="currentColor"/>
</symbol><symbol id="minus" viewBox="0 0 48 8">
<path d="M47.4635 7.33218L0.796875 7.33218L0.796875 0.665527L47.4635 0.665527V7.33218Z" fill="currentColor"/>
</symbol><symbol id="plus" viewBox="0 0 47 48">
<path d="M46.7828 27.3331L26.7828 27.3331L26.7828 47.3331H20.1162L20.1162 27.3331H0.116211L0.116211 20.6665H20.1162V0.666504L26.7828 0.666504V20.6665L46.7828 20.6665V27.3331Z" fill="currentColor"/>
</symbol><symbol id="velir" viewBox="0 0 106 100">
<path fill-rule="evenodd" clip-rule="evenodd" d="M106 -0.000488281L83.549 42.6625L59.976 -0.000488281H106Z" fill="#2D7256"/>
<path fill-rule="evenodd" clip-rule="evenodd" d="M0 -0.000488281H45.937L75.914 56.8815L53 99.9995L0 -0.000488281Z" fill="#2D7256"/>
</symbol></svg>