<svg width="38" height="39" viewBox="0 0 38 39" fill="none" xmlns="http://www.w3.org/2000/svg">
<path d="M32.5688 3.24951L5.4189 3.24951C4.17485 3.24951 3.16406 4.30141 3.16406 5.5927L3.16406 33.4063C3.16406 34.6976 4.17485 35.7495 5.4189 35.7495H32.5688C33.8129 35.7495 34.8307 34.6976 34.8307 33.4063V5.5927C34.8307 4.30141 33.8129 3.24951 32.5688 3.24951ZM12.7347 31.1067H8.04129L8.04129 15.5966H12.7418L12.7418 31.1067H12.7347ZM10.388 13.4783C8.88244 13.4783 7.66667 12.2233 7.66667 10.6853C7.66667 9.14739 8.88244 7.89237 10.388 7.89237C11.8865 7.89237 13.1094 9.14739 13.1094 10.6853C13.1094 12.2305 11.8936 13.4783 10.388 13.4783ZM30.3281 31.1067H25.6347V23.562C25.6347 21.7629 25.5993 19.4487 23.1961 19.4487C20.7504 19.4487 20.3757 21.4074 20.3757 23.4314V31.1067H15.6823L15.6823 15.5966L20.1849 15.5966V17.7149H20.2485C20.8776 16.4962 22.4115 15.2121 24.6946 15.2121C29.4446 15.2121 30.3281 18.4258 30.3281 22.6044V31.1067Z" fill="currentColor"/>
</svg>
