<svg width="30" height="30" viewBox="0 0 30 30" fill="none" xmlns="http://www.w3.org/2000/svg">
<path d="M26.5263 12.7311H23.9368C24.1474 13.4874 24.2526 14.2437 24.2526 15C24.2526 16.2605 24.0105 17.458 23.5263 18.5924C23.0421 19.7269 22.3789 20.7143 21.5368 21.5546C20.6947 22.395 19.7053 23.0567 18.5684 23.5399C17.4316 24.0231 16.2316 24.2647 14.9684 24.2647C13.7053 24.2647 12.5158 24.0231 11.4 23.5399C10.2842 23.0567 9.30526 22.395 8.46316 21.5546C7.62105 20.7143 6.95789 19.7269 6.47368 18.5924C5.98947 17.458 5.74737 16.2605 5.74737 15C5.74737 14.2437 5.85263 13.4874 6.06316 12.7311H3.41053V25.3992C3.41053 25.7353 3.52632 26.0084 3.75789 26.2185C3.98947 26.4286 4.27368 26.5336 4.61053 26.5336H25.3895C25.7263 26.5336 26 26.4286 26.2105 26.2185C26.4211 26.0084 26.5263 25.7353 26.5263 25.3992V12.7311ZM26.5263 4.66387C26.5263 4.32773 26.4211 4.04412 26.2105 3.81303C26 3.58193 25.7263 3.46639 25.3895 3.46639H21.9158C21.5789 3.46639 21.3053 3.58193 21.0947 3.81303C20.8842 4.04412 20.7789 4.32773 20.7789 4.66387V8.06723C20.7789 8.40336 20.8842 8.68698 21.0947 8.91807C21.3053 9.14916 21.5789 9.26471 21.9158 9.26471H25.3895C25.7263 9.26471 26 9.14916 26.2105 8.91807C26.4211 8.68698 26.5263 8.40336 26.5263 8.06723V4.66387ZM14.9684 9.26471C13.3684 9.26471 12.0105 9.82143 10.8947 10.9349C9.77895 12.0483 9.22105 13.4034 9.22105 15C9.22105 15.7983 9.36842 16.5546 9.66316 17.2689C9.95789 17.9832 10.3684 18.6029 10.8947 19.1282C11.4211 19.6534 12.0316 20.063 12.7263 20.3571C13.4211 20.6513 14.1684 20.7983 14.9684 20.7983C15.7684 20.7983 16.5263 20.6513 17.2421 20.3571C17.9579 20.063 18.5789 19.6534 19.1053 19.1282C19.6316 18.6029 20.0421 17.9832 20.3368 17.2689C20.6316 16.5546 20.7789 15.7983 20.7789 15C20.7789 14.2017 20.6316 13.4559 20.3368 12.7626C20.0421 12.0693 19.6316 11.4601 19.1053 10.9349C18.5789 10.4097 17.9579 10 17.2421 9.70588C16.5263 9.41177 15.7684 9.26471 14.9684 9.26471ZM3.41053 30C2.44211 30 1.63158 29.6639 0.978947 28.9916C0.326316 28.3193 0 27.5 0 26.5336V3.46639C0 2.5 0.326316 1.68067 0.978947 1.0084C1.63158 0.336134 2.44211 0 3.41053 0H26.5263C27.4947 0 28.3158 0.336134 28.9895 1.0084C29.6632 1.68067 30 2.5 30 3.46639V26.5336C30 27.5 29.6632 28.3193 28.9895 28.9916C28.3158 29.6639 27.4947 30 26.5263 30H3.41053Z" fill="currentColor"/>
</svg>
