<svg width="48" height="49" viewBox="0 0 48 49" fill="none" xmlns="http://www.w3.org/2000/svg">
    <path d="M33.159 24.0776C33.159 28.7253 29.3882 32.4868 24.729 32.4868C22.939 32.4868 21.2806 31.9222 19.9184 30.9769C15.1275 35.3161 11.5344 40.9748 12.2714 48.9376H48.1107V16.4233C47.8212 16.4562 41.0166 17.3489 32.9155 22.1345C33.0669 22.7581 33.159 23.4146 33.159 24.0842" fill="currentColor"/>
    <path d="M0 0.9375V48.9375H3.95509C4.03406 48.1891 5.2252 38.9791 17.6827 28.6596C16.8141 27.3467 16.3139 25.7712 16.3139 24.0775C16.3139 19.4364 20.0848 15.6749 24.7374 15.6749C27.5474 15.6749 30.0284 17.0535 31.5618 19.1673C35.5498 16.9287 41.1566 14.2242 48.1192 11.9397V0.9375H0Z" fill="currentColor"/>
</svg>
