<svg width="38" height="32" viewBox="0 0 38 32" fill="none" xmlns="http://www.w3.org/2000/svg">
<path d="M33.9476 8.5548C33.9715 8.88918 33.9715 9.22363 33.9715 9.55801C33.9715 19.757 26.2088 31.5086 12.0209 31.5086C7.64991 31.5086 3.58944 30.2426 0.173828 28.0453C0.794868 28.1169 1.39194 28.1408 2.03687 28.1408C5.64349 28.1408 8.9636 26.9226 11.6149 24.8446C8.22316 24.7729 5.3808 22.5516 4.40149 19.4943C4.87923 19.5659 5.35691 19.6137 5.85855 19.6137C6.5512 19.6137 7.24392 19.5181 7.88878 19.351C4.35377 18.6344 1.70242 15.5293 1.70242 11.7793V11.6838C2.72945 12.2571 3.92382 12.6153 5.18964 12.6631C3.11162 11.2777 1.75021 8.91307 1.75021 6.2379C1.75021 4.80481 2.13231 3.49112 2.80114 2.34462C6.59891 7.02613 12.3075 10.0834 18.7087 10.4178C18.5893 9.8446 18.5176 9.24752 18.5176 8.65038C18.5176 4.39875 21.9571 0.935425 26.2326 0.935425C28.4539 0.935425 30.4602 1.86695 31.8695 3.37172C33.6131 3.03734 35.2851 2.39241 36.766 1.50868C36.1927 3.30011 34.9746 4.80489 33.3743 5.76023C34.9268 5.59311 36.4316 5.16308 37.8169 4.56601C36.7662 6.09461 35.4524 7.45601 33.9476 8.5548Z" fill="currentColor"/>
</svg>
