<svg width="30" height="34" viewBox="0 0 30 34" fill="none" xmlns="http://www.w3.org/2000/svg">
<path d="M15.4255 0.0285203C17.2688 0 19.1015 0.0169009 20.932 0C21.043 2.15592 21.8183 4.35198 23.3964 5.87623C24.9714 7.43851 27.1991 8.15363 29.3667 8.39552V14.0668C27.3354 14.0003 25.2946 13.5778 23.4513 12.7031C22.6485 12.3398 21.9007 11.8718 21.1687 11.3933C21.1591 15.5087 21.1856 19.6188 21.1423 23.7172C21.0324 25.6862 20.3828 27.6457 19.2377 29.2681C17.3955 31.9691 14.1981 33.73 10.914 33.7849C8.89966 33.9 6.88739 33.3508 5.17089 32.3388C2.32626 30.6614 0.32456 27.5907 0.0330192 24.295C-0.000782602 23.5905 -0.012402 22.887 0.0161183 22.1993C0.269632 19.5195 1.5953 16.9558 3.65298 15.2119C5.98531 13.1806 9.25246 12.213 12.3115 12.7855C12.34 14.8717 12.2566 16.9558 12.2566 19.042C10.8591 18.5899 9.22605 18.7167 8.00496 19.5649C7.11344 20.1427 6.43635 21.0279 6.08354 22.0293C5.792 22.7433 5.87545 23.5366 5.89235 24.295C6.2272 26.6062 8.44967 28.5488 10.8221 28.3386C12.395 28.3217 13.9023 27.409 14.722 26.0728C14.9871 25.6049 15.284 25.1264 15.2998 24.576C15.4382 22.0567 15.3833 19.548 15.4002 17.0287C15.4118 11.3511 15.3833 5.68927 15.4266 0.0295766L15.4255 0.0285203Z" fill="currentColor"/>
</svg>
