<svg width="39" height="27" viewBox="0 0 39 27" fill="none" xmlns="http://www.w3.org/2000/svg">
<path d="M37.5504 4.13362C37.0948 2.51639 35.8336 1.24803 34.2092 0.799661C31.2181 3.8229e-05 19.1938 3.84224e-05 19.1938 3.84224e-05C19.1938 3.84224e-05 7.19225 -0.0191432 4.16999 0.799661C2.55396 1.24922 1.28679 2.51639 0.83603 4.13362C0.268981 7.19904 -0.0127448 10.3016 0.00044236 13.4186C-0.00555182 16.5152 0.274976 19.613 0.83603 22.6592C1.28679 24.2765 2.55396 25.5448 4.16999 26.0004C7.16108 26.8 19.1938 26.8 19.1938 26.8C19.1938 26.8 31.1881 26.8 34.2092 26.0004C35.8336 25.5448 37.0948 24.2777 37.5504 22.6592C38.1006 19.613 38.3692 16.5152 38.35 13.4186C38.3692 10.3016 38.1066 7.19904 37.5504 4.13362ZM15.3527 19.1574V7.6546L25.3618 13.4186L15.3527 19.1574Z" fill="currentColor"/>
</svg>
