<svg width="16" height="10" viewBox="0 0 16 10" fill="none" xmlns="http://www.w3.org/2000/svg">
<path d="M13.5309 0.37583L13.5296 0.377007L5.88778 7.11367L2.47078 4.10138C2.47071 4.10132 2.47064 4.10125 2.47056 4.10119C2.37155 4.01329 2.23682 3.96384 2.09629 3.96384C1.95572 3.96384 1.82098 4.0133 1.72196 4.10124C1.72191 4.10129 1.72186 4.10133 1.7218 4.10138L1.15601 4.60015C1.15595 4.60021 1.15587 4.60028 1.1558 4.60034C1.05608 4.68763 1 4.80639 1 4.93028C1 5.05419 1.05611 5.17298 1.15587 5.26027C1.15592 5.26032 1.15596 5.26036 1.15601 5.2604L5.51733 9.10514C5.51741 9.10523 5.5175 9.10523 5.51758 9.10532C5.61659 9.19322 5.75131 9.24268 5.89183 9.24268C6.03235 9.24268 6.16705 9.19322 6.26606 9.10532C6.26614 9.10523 6.26623 9.10523 6.26631 9.10514L14.844 1.54348C14.844 1.54345 14.8441 1.54342 14.8441 1.54341C14.9439 1.4561 15 1.3373 15 1.21335C15 1.08957 14.944 0.970907 14.8445 0.883641C14.8443 0.883502 14.8442 0.883364 14.844 0.883217L14.2785 0.377545V0.377527L14.2765 0.37583C14.0687 0.198291 13.7386 0.198291 13.5309 0.37583Z" fill="currentColor" stroke="currentColor" stroke-width="0.25"/>
</svg>
