<svg width="35" height="60" viewBox="0 0 35 60" fill="none" xmlns="http://www.w3.org/2000/svg">
<path d="M17.5039 47.0019C10.6373 47.0019 7.93729 43.9352 7.57063 40.0019H0.237305C0.637304 47.3019 6.10396 51.4019 12.504 52.7685V60.0019H22.5039V52.8352C29.0039 51.6019 34.1706 47.8352 34.1706 41.0019C34.1706 31.5352 26.0706 28.3019 18.5039 26.3352C10.9373 24.3686 8.50396 22.3352 8.50396 19.1686C8.50396 15.5353 11.8706 13.0019 17.5039 13.0019C23.4373 13.0019 25.6373 15.8353 25.8373 20.0019L33.2039 20.0019C32.9706 14.2686 29.4706 9.00194 22.5039 7.30194V0.00195312L12.504 0.00195312V7.20194C6.03729 8.60194 0.837303 12.8019 0.837303 19.2353C0.837303 26.9352 7.20396 30.7686 16.5039 33.0019C24.8373 35.0019 26.5039 37.9352 26.5039 41.0352C26.5039 43.3352 24.8706 47.0019 17.5039 47.0019V47.0019Z" fill="currentColor"/>
</svg>
