<svg width="47" height="68" viewBox="0 0 47 68" fill="none" xmlns="http://www.w3.org/2000/svg">
<path d="M23.4925 0.664551C10.5925 0.664551 0.15918 11.0979 0.15918 23.9978C0.15918 29.7978 1.82584 35.2312 4.85917 40.1311C8.02583 45.2645 12.1925 49.6645 15.3925 54.7978C16.9591 57.2978 18.0925 59.6311 19.2925 62.3311C20.1591 64.1644 20.8591 67.3311 23.4925 67.3311C26.1258 67.3311 26.8258 64.1644 27.6591 62.3311C28.8925 59.6311 29.9925 57.2978 31.5591 54.7978C34.7591 49.6978 38.9258 45.2978 42.0924 40.1311C45.1591 35.2312 46.8258 29.7978 46.8258 23.9978C46.8258 11.0979 36.3924 0.664551 23.4925 0.664551ZM23.4925 33.1645C18.8925 33.1645 15.1592 29.4312 15.1592 24.8312C15.1592 20.2312 18.8925 16.4979 23.4925 16.4979C28.0925 16.4979 31.8258 20.2312 31.8258 24.8312C31.8258 29.4312 28.0925 33.1645 23.4925 33.1645Z" fill="currentColor"/>
</svg>
